<svg width="47" height="48" viewBox="0 0 47 48" fill="none" xmlns="http://www.w3.org/2000/svg">
<g clip-path="url(#clip0_85_2979)">
<path d="M36.0487 13.0611H16.8413C16.4307 13.0611 16.0333 13.2641 15.7816 13.6023L13.7946 16.3079C13.1456 17.2008 13.7681 18.4725 14.8543 18.4725H34.0617C34.4724 18.4725 34.8697 18.2695 35.1214 17.9313L37.1084 15.2257C37.7575 14.3328 37.1349 13.0611 36.0487 13.0611Z" fill="#A3AED0"/>
<path d="M14.8543 21.8545H34.0617C34.4724 21.8545 34.8697 22.0575 35.1214 22.3957L37.1084 25.1013C37.7575 25.9942 37.1349 27.2659 36.0487 27.2659H16.8413C16.4307 27.2659 16.0333 27.0629 15.7816 26.7247L13.7946 24.0191C13.1456 23.1262 13.7681 21.8545 14.8543 21.8545Z" fill="#A3AED0"/>
<path d="M36.0487 30.6479H16.8413C16.4307 30.6479 16.0333 30.8509 15.7816 31.1891L13.7946 33.8947C13.1456 34.7876 13.7681 36.0593 14.8543 36.0593H34.0617C34.4724 36.0593 34.8697 35.8564 35.1214 35.5181L37.1084 32.8125C37.7575 31.9196 37.1349 30.6479 36.0487 30.6479Z" fill="#A3AED0"/>
</g>
<defs>
<clipPath id="clip0_85_2979">
<rect width="47" height="48" fill="white"/>
</clipPath>
</defs>
</svg>
